<svg width="28" height="28" viewBox="0 0 28 28" fill="none" xmlns="http://www.w3.org/2000/svg">
<path d="M27.3337 12.668H21.7737L26.0937 8.34797L24.2137 6.45464L18.0003 12.668H15.3337V10.0013L21.547 3.78797L19.6537 1.90797L15.3337 6.22797V0.667969H12.667V6.22797L8.34699 1.90797L6.45366 3.78797L12.667 10.0013V12.668H10.0003L3.78699 6.45464L1.90699 8.34797L6.22699 12.668H0.666992V15.3346H6.22699L1.90699 19.6546L3.78699 21.548L10.0003 15.3346H12.667V18.0013L6.45366 24.2146L8.34699 26.0946L12.667 21.7746V27.3346H15.3337V21.7746L19.6537 26.0946L21.547 24.2146L15.3337 18.0013V15.3346H18.0003L24.2137 21.548L26.0937 19.6546L21.7737 15.3346H27.3337V12.668Z" fill="#151718"/>
</svg>
