<svg width="28" height="28" viewBox="0 0 28 28" fill="none" xmlns="http://www.w3.org/2000/svg">
<path d="M14.0003 0.667969C6.64033 0.667969 0.666992 6.6413 0.666992 14.0013C0.666992 21.3613 6.64033 27.3346 14.0003 27.3346C21.3603 27.3346 27.3337 21.3613 27.3337 14.0013C27.3337 6.6413 21.3603 0.667969 14.0003 0.667969ZM4.97366 8.33464C6.13366 9.49464 6.93366 10.988 7.21366 12.668H3.42699C3.62699 11.0946 4.17366 9.62797 4.97366 8.33464ZM3.42699 15.3346H7.21366C6.93366 17.0146 6.13366 18.508 4.97366 19.668C4.17366 18.3746 3.62699 16.908 3.42699 15.3346ZM12.667 24.5746C10.3603 24.2813 8.28033 23.2413 6.68033 21.7213C8.41366 20.068 9.60033 17.8413 9.90699 15.3346H12.667V24.5746ZM12.667 12.668H9.90699C9.58699 10.1613 8.41366 7.9213 6.66699 6.26797C8.28033 4.74797 10.3603 3.7213 12.667 3.42797V12.668ZM24.5737 12.668H20.787C21.067 10.988 21.867 9.49464 23.027 8.33464C23.827 9.62797 24.3737 11.0946 24.5737 12.668ZM15.3337 3.42797C17.6403 3.7213 19.7203 4.74797 21.3337 6.26797C19.587 7.9213 18.4137 10.1613 18.0937 12.668H15.3337V3.42797ZM15.3337 24.5746V15.3346H18.0937C18.4137 17.8413 19.587 20.068 21.3203 21.7213C19.7203 23.2413 17.6403 24.2813 15.3337 24.5746ZM23.027 19.668C21.867 18.5213 21.0803 17.0146 20.787 15.3346H24.5737C24.3737 16.908 23.827 18.3746 23.027 19.668Z" fill="#151718"/>
</svg>
