<svg width="18" height="20" viewBox="0 0 18 20" fill="none" xmlns="http://www.w3.org/2000/svg">
<path d="M1.57715 7.8418H16.4305" stroke="#151718" stroke-width="2" stroke-linecap="round" stroke-linejoin="round"/>
<path d="M12.702 11.1002H12.7084" stroke="#151718" stroke-width="2" stroke-linecap="round" stroke-linejoin="round"/>
<path d="M9.00406 11.097H9.01046" stroke="#151718" stroke-width="2" stroke-linecap="round" stroke-linejoin="round"/>
<path d="M5.298 11.1002H5.30441" stroke="#151718" stroke-width="2" stroke-linecap="round" stroke-linejoin="round"/>
<path d="M12.702 14.3295H12.7084" stroke="#151718" stroke-width="2" stroke-linecap="round" stroke-linejoin="round"/>
<path d="M9.00406 14.3295H9.01046" stroke="#151718" stroke-width="2" stroke-linecap="round" stroke-linejoin="round"/>
<path d="M5.298 14.3295H5.30441" stroke="#151718" stroke-width="2" stroke-linecap="round" stroke-linejoin="round"/>
<path d="M12.3701 1.66992V4.41242" stroke="#151718" stroke-width="2" stroke-linecap="square" stroke-linejoin="round"/>
<path d="M5.63901 1.66992V4.41242" stroke="#151718" stroke-width="2" stroke-linecap="square" stroke-linejoin="round"/>
<path fill-rule="evenodd" clip-rule="evenodd" d="M12.5319 2.98181C10.0769 2.98181 5.4758 2.98181 5.4758 2.98181C3.02856 2.98181 1.5 2.98181 1.5 2.98181V14.3924C1.5 16.9377 1.5 18.3325 1.5 18.3325H16.5C16.5 18.3325 16.5 16.9613 16.5 14.4554V2.98181C16.5 2.98181 14.9868 2.98181 12.5319 2.98181Z" stroke="#151718" stroke-width="2" stroke-linecap="round"/>
</svg>
