<svg width="29" height="29" viewBox="0 0 29 29" fill="none" xmlns="http://www.w3.org/2000/svg">
<path d="M21.653 4.66797L22.493 6.49464L24.3197 7.33464L22.493 8.17464L21.653 10.0013L20.813 8.17464L18.9863 7.33464L20.813 6.49464L21.653 4.66797ZM25.6663 16.668C27.133 16.668 28.333 15.468 28.333 14.0013C28.333 12.5346 25.6663 8.66797 25.6663 8.66797C25.6663 8.66797 22.9997 12.5346 22.9997 14.0013C22.9997 15.468 24.1997 16.668 25.6663 16.668ZM13.6663 6.13464V3.33464H16.333C17.093 3.33464 17.7997 3.5613 18.3997 3.93464L20.3063 2.02797C19.1997 1.18797 17.8397 0.667969 16.333 0.667969C14.373 0.667969 9.07967 0.667969 8.99967 0.667969V3.33464H10.9997V6.14797C8.62634 6.6413 6.73301 8.38797 5.99967 10.668H8.87967C9.58634 9.4813 10.853 8.66797 12.333 8.66797C14.493 8.66797 16.253 10.388 16.3197 12.5346L18.9997 13.5346V12.668C18.9997 9.4413 16.7063 6.74797 13.6663 6.13464ZM28.333 23.3346V24.668L17.6663 28.0013L8.33301 25.4146V27.3346H0.333008V12.668H10.9597L19.173 15.7346C20.6663 16.2946 21.6663 17.7346 21.6663 19.3346H24.333C26.5463 19.3346 28.333 21.1213 28.333 23.3346ZM5.66634 24.668V15.3346H2.99967V24.668H5.66634ZM25.533 22.7613C25.3197 22.3213 24.853 22.0146 24.333 22.0146H17.1997C16.4797 22.0146 15.773 21.8946 15.093 21.668L11.9197 20.6146L12.7597 18.0813L15.933 19.1346C16.3463 19.268 18.9997 19.3346 18.9997 19.3346C18.9997 18.8413 18.693 18.4013 18.2397 18.228L10.4797 15.3346H8.33301V22.6413L17.6263 25.2146L25.533 22.7613Z" fill="#151718"/>
</svg>
