<svg width="28" height="28" viewBox="0 0 28 28" fill="none" xmlns="http://www.w3.org/2000/svg">
<path d="M25.427 17.8146L27.3337 15.908L25.427 14.0013L20.667 18.7613L9.24033 7.33464L14.0003 2.57464L12.0937 0.667969L10.187 2.57464L8.28033 0.667969L5.42699 3.5213L3.52033 1.61464L1.61366 3.5213L3.52033 5.42797L0.666992 8.2813L2.57366 10.188L0.666992 12.0946L2.57366 14.0013L7.33366 9.2413L18.7603 20.668L14.0003 25.428L15.907 27.3346L17.8137 25.428L19.7203 27.3346L22.5737 24.4813L24.4803 26.388L26.387 24.4813L24.4803 22.5746L27.3337 19.7213L25.427 17.8146Z" fill="#151718"/>
</svg>
