<svg width="24" height="22" viewBox="0 0 24 22" fill="none" xmlns="http://www.w3.org/2000/svg">
    <path fill-rule="evenodd" clip-rule="evenodd"
        d="M12.2422 2.56986C9.80527 0.500896 6.23936 0.0945969 3.46127 2.46826C0.431591 5.05688 -0.010004 9.41978 2.3875 12.5049C3.28868 13.6645 5.04132 15.3998 6.71784 16.9822C8.41638 18.5855 10.1107 20.1002 10.9462 20.8401C10.9516 20.8449 10.9571 20.8498 10.9628 20.8548C11.0405 20.9237 11.1418 21.0135 11.2397 21.0872C11.3583 21.1765 11.5328 21.2907 11.7675 21.3607C12.0767 21.4529 12.4088 21.4529 12.718 21.3607C12.9526 21.2907 13.1272 21.1765 13.2457 21.0872C13.3436 21.0135 13.445 20.9237 13.5226 20.8548C13.5283 20.8498 13.5338 20.8449 13.5392 20.8401C14.3747 20.1002 16.0691 18.5855 17.7676 16.9822C19.4441 15.3998 21.1968 13.6645 22.0979 12.5049C24.4853 9.43285 24.1133 5.03566 21.0122 2.45817C18.2048 0.124801 14.6763 0.500207 12.2422 2.56986ZM11.3688 4.93654C9.65791 2.93634 6.95784 2.50592 4.95534 4.2169C2.84967 6.01603 2.56827 8.98925 4.20359 11.0936C4.97892 12.0913 6.60139 13.7096 8.29657 15.3096C9.82778 16.7549 11.3596 18.1309 12.2427 18.9157C13.1258 18.1309 14.6577 16.7549 16.1889 15.3096C17.8841 13.7096 19.5065 12.0913 20.2819 11.0936C21.9273 8.97617 21.6646 5.9911 19.5421 4.22698C17.4836 2.51609 14.8189 2.94647 13.1166 4.93654C12.8981 5.19197 12.5788 5.33902 12.2427 5.33902C11.9066 5.33902 11.5873 5.19197 11.3688 4.93654Z"
        fill="#151718" />
</svg>