<svg width="16" height="18" viewBox="0 0 16 18" fill="none" xmlns="http://www.w3.org/2000/svg">
    <path
        d="M15.1094 7.68656C15.0593 8.0031 15.0259 8.31963 14.9592 8.63206C14.6713 9.98865 14.0204 11.1767 13.2318 12.3031C12.1094 13.9022 10.7492 15.2917 9.30136 16.6031C8.87995 16.9854 8.44601 17.3595 7.99957 17.75C7.80346 17.5815 7.6157 17.4211 7.42794 17.2608C5.89249 15.9248 4.43214 14.5147 3.19293 12.8992C2.32507 11.7646 1.57821 10.5642 1.16514 9.18703C0.151238 5.81611 1.95372 1.3928 6.44325 0.422628C9.68105 -0.280333 12.8646 1.20781 14.325 4.08131C14.7672 4.95282 15.0051 5.88188 15.0677 6.85205C15.0718 6.93838 15.0927 7.02471 15.1052 7.11103C15.1094 7.30425 15.1094 7.49335 15.1094 7.68656ZM7.98705 15.4191C8.04129 15.3739 8.07467 15.3492 8.10388 15.3205C8.87995 14.6175 9.63098 13.8858 10.3278 13.1088C11.1748 12.1674 11.955 11.1767 12.5559 10.0544C13.1567 8.92804 13.4571 7.75233 13.2485 6.46152C12.7227 3.23447 9.70609 1.39691 6.61015 2.17386C4.29863 2.7535 2.73397 4.77605 2.67138 7.19325C2.64635 8.13464 2.90504 9.00204 3.32645 9.82833C4.44883 12.0359 6.18456 13.7419 7.98705 15.4191Z"
        fill="#151718" />
    <path
        d="M8 5.71875C8.90119 5.71875 9.64062 6.45607 9.64062 7.35938C9.64062 8.25882 8.89734 9 8 9C7.10266 9 6.35938 8.25496 6.35938 7.35552C6.35938 6.45607 7.09881 5.71875 8 5.71875Z"
        fill="#151718" />
</svg>