<svg width="178" height="52" viewBox="0 0 178 52" fill="none" xmlns="http://www.w3.org/2000/svg">
    <path
        d="M9.34465 10.2816C8.75991 10.0217 7.94777 9.72932 6.95697 9.40447L6.27477 9.17707C5.54367 8.96983 4.84018 8.67534 4.17946 8.29996C4.06003 8.22213 3.96478 8.11241 3.9045 7.98323C3.84422 7.85405 3.82131 7.71057 3.83836 7.56904C3.82565 7.43953 3.85313 7.30925 3.91706 7.19591C3.981 7.08257 4.07829 6.99167 4.1957 6.93557C4.66158 6.71484 5.17532 6.61432 5.69004 6.6432C7.78535 6.6432 8.12644 7.65025 8.12644 8.52736V9.12834H11.375V8.52736C11.3911 7.89838 11.2784 7.27275 11.0437 6.68895C10.8091 6.10514 10.4575 5.57552 10.0106 5.13263C9.41888 4.62685 8.73139 4.24539 7.98909 4.01098C7.2468 3.77657 6.46491 3.69402 5.69004 3.76824C4.39168 3.69488 3.1043 4.04236 2.01918 4.75905C1.56258 5.08077 1.19196 5.50969 0.939906 6.00815C0.687847 6.5066 0.562053 7.05933 0.573576 7.61777C0.545777 8.38231 0.780817 9.13329 1.23953 9.74556C1.67635 10.2912 2.23186 10.7301 2.8638 11.0287C3.63142 11.384 4.42402 11.6826 5.23524 11.9221L5.93368 12.1332C6.61587 12.3282 7.15188 12.5231 7.55795 12.6693C7.84172 12.7615 8.09461 12.9301 8.28887 13.1565C8.44582 13.3546 8.52651 13.6024 8.51627 13.855C8.52532 14.0054 8.49394 14.1556 8.4254 14.2898C8.35685 14.424 8.25363 14.5375 8.12644 14.6184C7.54645 14.8608 6.91841 14.9664 6.29102 14.927C4.1957 14.9432 3.25363 14.1636 3.25363 12.4256V11.8084H0.00508072V12.4256C-0.0279261 13.1669 0.100191 13.9066 0.380602 14.5936C0.661014 15.2806 1.08705 15.8986 1.62935 16.4051C2.93805 17.449 4.58766 17.9699 6.25853 17.8669C7.71291 17.9897 9.16495 17.6052 10.3679 16.7787C10.8078 16.4207 11.1595 15.9666 11.396 15.4512C11.6326 14.9359 11.7477 14.3731 11.7323 13.8062C11.7608 13.0062 11.5015 12.2224 11.0014 11.5972C10.5549 11.0399 9.98862 10.5903 9.34465 10.2816Z"
        fill="#151718" />
    <path
        d="M24.3694 4.69422C23.3447 4.06489 22.1607 3.7435 20.9584 3.76839C20.0779 3.70852 19.196 3.8618 18.3873 4.21523C17.5787 4.56867 16.8671 5.11184 16.313 5.79873V4.01203H13.0645V22.0902H16.313V15.7718C16.592 16.1347 16.92 16.4572 17.2876 16.7301C18.3561 17.4911 19.6478 17.874 20.9584 17.8183C22.1403 17.8482 23.3058 17.5381 24.3165 16.9247C25.3272 16.3114 26.1404 15.4208 26.6596 14.3586C27.1948 13.2499 27.4672 12.0326 27.4555 10.8015C27.4691 9.56494 27.1967 8.34197 26.6596 7.22809C26.144 6.18876 25.3515 5.31193 24.3694 4.69422ZM24.1907 10.8015C24.2358 11.3557 24.1685 11.9134 23.9926 12.4409C23.8168 12.9685 23.5361 13.455 23.1674 13.8714C22.7874 14.2134 22.3435 14.4771 21.8613 14.6471C21.3791 14.8171 20.868 14.8902 20.3574 14.8622C19.2848 14.914 18.233 14.5537 17.4175 13.8551C17.0247 13.4554 16.7228 12.9757 16.5322 12.4488C16.3416 11.9218 16.2668 11.36 16.313 10.8015C16.2681 10.2456 16.3435 9.68652 16.5341 9.16238C16.7247 8.63824 17.026 8.16132 17.4175 7.7641C18.2306 7.05963 19.2827 6.69344 20.3574 6.7408C20.8694 6.71128 21.3822 6.78523 21.865 6.95826C22.3478 7.13128 22.7907 7.39983 23.1674 7.74785C23.5422 8.15804 23.8292 8.6405 24.0107 9.16562C24.1923 9.69073 24.2646 10.2474 24.2232 10.8015H24.1907Z"
        fill="#151718" />
    <path
        d="M39.4403 4.69417C38.2974 4.08695 37.023 3.76941 35.7288 3.76941C34.4347 3.76941 33.1602 4.08695 32.0174 4.69417C30.9616 5.29178 30.0905 6.1684 29.4997 7.22804C28.8926 8.31459 28.5792 9.54059 28.5902 10.7852C28.5786 12.035 28.892 13.2664 29.4997 14.3586C30.0857 15.4219 30.9579 16.2996 32.0174 16.8925C33.1486 17.542 34.4325 17.8784 35.737 17.867C37.0292 17.8885 38.305 17.5752 39.4403 16.9574C40.5048 16.3585 41.382 15.4756 41.9742 14.4073C42.5638 13.3094 42.8655 12.08 42.8513 10.8339C42.868 9.59068 42.5601 8.36459 41.9579 7.27677C41.3743 6.19919 40.5027 5.30505 39.4403 4.69417ZM37.816 14.3424C37.1836 14.7025 36.4645 14.8822 35.737 14.8621C34.9989 14.8841 34.2689 14.7044 33.6254 14.3424C33.0558 13.9984 32.5987 13.4961 32.3097 12.8968C31.9961 12.2378 31.8403 11.5148 31.8549 10.7852C31.8078 9.71249 32.1807 8.66366 32.8945 7.86151C33.258 7.47889 33.7008 7.18033 34.1918 6.98674C34.6827 6.79315 35.2101 6.7092 35.737 6.74076C36.4668 6.71863 37.1879 6.90454 37.816 7.27677C38.3803 7.61511 38.8322 8.11229 39.1154 8.70613C39.4276 9.35403 39.5834 10.0661 39.5702 10.7852C39.5848 11.5148 39.4291 12.2378 39.1154 12.8968C38.8278 13.4919 38.3772 13.9932 37.816 14.3424Z"
        fill="#151718" />
    <path
        d="M48.7319 7.00062H52.5815V4.01195H48.7319V0L45.4834 0.990806V4.01195H42.7871V7.00062H45.4834V15.528C45.4619 15.8522 45.5086 16.1772 45.6205 16.4822C45.7324 16.7871 45.907 17.0652 46.1331 17.2985C46.3364 17.4841 46.5748 17.6272 46.8342 17.7192C47.0936 17.8113 47.3689 17.8505 47.6437 17.8345H47.8386L53.1175 17.5584V14.6185L48.7319 14.8296V7.00062Z"
        fill="#151718" />
    <path
        d="M63.4653 51.9768H60.2168V33.9798L69.8325 24.3641H87.8294V27.6127H71.1806L63.4653 35.328V51.9768Z"
        fill="#8554EE" />
    <path
        d="M53.8485 27.6126H35.8516V24.3641H52.5004L60.2157 16.6488V0H63.4642V17.9969L53.8485 27.6126Z"
        fill="#8554EE" />
    <path
        d="M81.7529 38.8364C80.7272 38.2096 79.5439 37.8884 78.3419 37.9105C77.05 37.8634 75.778 38.2398 74.7198 38.9825C74.3551 39.2582 74.0227 39.5742 73.729 39.9246V32.2581H70.4805V51.7493H73.729V49.9301C74.0224 50.2857 74.3547 50.6071 74.7198 50.8885C75.7971 51.644 77.092 52.0262 78.4069 51.9767C79.6092 52.0016 80.7932 51.6802 81.8179 51.0509C82.8002 50.4311 83.5882 49.5474 84.0919 48.5008C84.6051 47.3851 84.8709 46.1717 84.8709 44.9436C84.8709 43.7156 84.6051 42.5021 84.0919 41.3865C83.5654 40.3348 82.7552 39.4515 81.7529 38.8364ZM81.558 44.9274C81.6042 45.4855 81.5358 46.0471 81.357 46.5778C81.1782 47.1085 80.8929 47.5971 80.5185 48.0135C80.1423 48.3623 79.6994 48.6313 79.2165 48.8044C78.7336 48.9775 78.2206 49.051 77.7085 49.0205C76.639 49.0654 75.5929 48.6992 74.7848 47.9973C74.3934 47.5932 74.0924 47.1105 73.902 46.5812C73.7116 46.0519 73.636 45.4882 73.6803 44.9274C73.625 44.3786 73.6893 43.8244 73.8687 43.3028C74.0482 42.7813 74.3386 42.3048 74.7198 41.9062C75.5287 41.2072 76.5757 40.8465 77.6435 40.8992C78.1568 40.8681 78.6712 40.9396 79.1565 41.1098C79.6418 41.2799 80.0882 41.5452 80.4697 41.89C80.8483 42.2956 81.14 42.7742 81.3271 43.2965C81.5143 43.8187 81.5928 44.3737 81.558 44.9274Z"
        fill="#151718" />
    <path
        d="M95.8357 44.2452C95.8588 45.1378 95.687 46.0247 95.3322 46.844C95.0459 47.5024 94.5784 48.0657 93.984 48.4683C93.3925 48.8457 92.7041 49.0432 92.0024 49.0368C91.6539 49.0705 91.3023 49.0316 90.9696 48.9225C90.6369 48.8135 90.3305 48.6367 90.0695 48.4033C89.6083 47.7155 89.4015 46.8883 89.4848 46.0644V38.1704H86.2362V46.2918C86.1317 47.823 86.6334 49.334 87.6331 50.4986C88.1391 50.9891 88.7404 51.3704 89.3998 51.6191C90.0592 51.8678 90.7625 51.9784 91.4664 51.9442C92.7495 51.9967 94.0079 51.5811 95.0073 50.7748C95.3261 50.5023 95.6098 50.1913 95.8519 49.8489V51.7006H99.1005V38.1704H95.8357V44.2452Z"
        fill="#151718" />
    <path
        d="M109.724 44.44C108.943 44.1074 108.146 43.8147 107.336 43.5629L106.654 43.3355C105.918 43.127 105.209 42.8326 104.542 42.4583C104.428 42.3757 104.336 42.2651 104.277 42.1372C104.217 42.0093 104.191 41.8682 104.201 41.7274C104.192 41.5965 104.223 41.4658 104.29 41.3527C104.356 41.2397 104.456 41.1494 104.575 41.094C105.035 40.8746 105.543 40.7741 106.053 40.8016C108.164 40.8016 108.424 41.7924 108.424 42.6695V43.2867H111.673V42.6695C111.687 42.0432 111.573 41.4207 111.338 40.8398C111.104 40.259 110.753 39.732 110.308 39.291C109.723 38.7893 109.045 38.4088 108.311 38.1718C107.578 37.9348 106.805 37.8459 106.037 37.9104C104.718 37.8525 103.417 38.2292 102.333 38.9824C101.619 39.5527 101.147 40.3731 101.014 41.2778C100.882 42.1825 101.098 43.1037 101.619 43.8552C102.058 44.3938 102.613 44.8267 103.243 45.1222C104.018 45.4779 104.815 45.7818 105.631 46.0317C105.859 46.1109 106.092 46.176 106.329 46.2267C107.011 46.4378 107.547 46.6165 107.953 46.7627C108.231 46.8741 108.481 47.0461 108.684 47.2662C108.838 47.4587 108.914 47.7025 108.895 47.9484C108.895 48.4682 108.7 48.6468 108.538 48.7443C107.962 49 107.332 49.1115 106.703 49.0691C104.624 49.0691 103.681 48.2895 103.681 46.5353V45.9668H100.433V46.5678C100.4 47.3115 100.528 48.0536 100.808 48.7433C101.088 49.4329 101.514 50.0538 102.057 50.5635C103.39 51.6055 105.065 52.1098 106.751 51.9766C108.208 52.1029 109.663 51.7118 110.861 50.8721C111.274 50.5031 111.598 50.0455 111.809 49.5336C112.02 49.0217 112.112 48.4686 112.079 47.9159C112.116 47.1146 111.856 46.3277 111.348 45.7069C110.914 45.1621 110.358 44.7279 109.724 44.44Z"
        fill="#151718" />
    <path
        d="M132.14 37.9106C130.855 37.8657 129.598 38.2868 128.599 39.0963C128.285 39.3677 128.002 39.6727 127.754 40.0059V38.1705H124.506V51.7332H127.754V45.6584C127.736 44.7662 127.908 43.8803 128.258 43.0596C128.54 42.3941 129.016 41.8284 129.622 41.4353C130.206 41.071 130.883 40.8847 131.571 40.8993C131.917 40.8659 132.267 40.905 132.597 41.0141C132.927 41.1231 133.23 41.2998 133.488 41.5327C133.967 42.208 134.191 43.0307 134.122 43.8554V51.7494H137.37V43.628C137.469 42.1073 136.968 40.6083 135.973 39.4537C135.478 38.9424 134.881 38.5409 134.22 38.2751C133.56 38.0093 132.851 37.8851 132.14 37.9106Z"
        fill="#151718" />
    <path
        d="M162.432 44.4401C161.847 44.1802 161.035 43.8878 160.044 43.5629L159.346 43.3355C158.616 43.125 157.912 42.8307 157.25 42.4584C157.136 42.3758 157.044 42.2652 156.985 42.1373C156.925 42.0094 156.899 41.8683 156.909 41.7275C156.896 41.598 156.924 41.4677 156.988 41.3544C157.052 41.241 157.149 41.1501 157.266 41.094C157.734 40.8796 158.247 40.7794 158.761 40.8017C160.856 40.8017 161.132 41.7925 161.132 42.6696V43.2868H164.381V42.6696C164.394 42.0448 164.281 41.4238 164.05 40.8434C163.818 40.263 163.472 39.7351 163.033 39.2911C162.447 38.7909 161.768 38.4114 161.035 38.1745C160.301 37.9376 159.529 37.8478 158.761 37.9105C157.461 37.8465 156.175 38.1993 155.09 38.9175C154.636 39.241 154.269 39.6708 154.02 40.1691C153.771 40.6674 153.647 41.2192 153.661 41.7762C153.642 42.522 153.87 43.253 154.31 43.8553C154.752 44.3923 155.306 44.8249 155.935 45.1222C156.703 45.4811 157.495 45.785 158.306 46.0318L159.004 46.2267C159.697 46.4325 160.239 46.6112 160.629 46.7628C160.902 46.8743 161.146 47.0465 161.343 47.2663C161.426 47.3586 161.488 47.4667 161.527 47.584C161.566 47.7012 161.581 47.8253 161.571 47.9485C161.571 48.4682 161.376 48.6469 161.197 48.7444C160.627 49.002 160.002 49.1136 159.378 49.0692C157.283 49.0692 156.357 48.2896 156.357 46.5354V45.9669H153.108V46.5678C153.076 47.3114 153.205 48.0532 153.485 48.7427C153.765 49.4323 154.191 50.0533 154.733 50.5636C156.06 51.6031 157.729 52.1073 159.411 51.9767C160.872 52.0999 162.331 51.7093 163.536 50.8722C163.971 50.5143 164.318 50.0621 164.552 49.5498C164.785 49.0376 164.899 48.4788 164.884 47.916C164.915 47.1184 164.661 46.3358 164.17 45.707C163.7 45.1513 163.104 44.7168 162.432 44.4401Z"
        fill="#151718" />
    <path
        d="M176.531 45.707C176.096 45.1635 175.54 44.7295 174.907 44.4401C174.126 44.1075 173.329 43.8148 172.519 43.5629L171.837 43.3355C171.106 43.1283 170.402 42.8338 169.741 42.4584C169.623 42.3793 169.529 42.2693 169.469 42.1405C169.409 42.0117 169.385 41.8689 169.4 41.7275C169.388 41.598 169.415 41.4677 169.479 41.3544C169.543 41.241 169.64 41.1501 169.758 41.094C170.224 40.8733 170.737 40.7728 171.252 40.8017C173.347 40.8017 173.623 41.7925 173.623 42.6696V43.2868H176.872V42.6696C176.885 42.0448 176.773 41.4238 176.541 40.8434C176.309 40.263 175.963 39.7351 175.524 39.2911C174.938 38.7909 174.259 38.4114 173.526 38.1745C172.793 37.9376 172.02 37.8478 171.252 37.9105C169.952 37.8419 168.664 38.1951 167.581 38.9175C166.829 39.4811 166.327 40.3159 166.181 41.2442C166.036 42.1726 166.258 43.1211 166.801 43.8878C167.239 44.4284 167.795 44.8617 168.426 45.1547C169.194 45.5135 169.986 45.8175 170.797 46.0643L171.496 46.2592C172.194 46.4704 172.73 46.6491 173.12 46.7952C173.4 46.9025 173.651 47.0751 173.851 47.2988C174.009 47.4897 174.091 47.7331 174.078 47.981C174.101 48.1357 174.078 48.2936 174.011 48.4352C173.945 48.5767 173.838 48.6956 173.705 48.7769C173.129 49.0358 172.498 49.1475 171.869 49.1017C169.79 49.1017 168.864 48.3221 168.864 46.5678V45.9669H165.616V46.5678C165.586 47.3112 165.715 48.0524 165.995 48.7415C166.275 49.4307 166.7 50.052 167.24 50.5636C168.573 51.6056 170.248 52.1099 171.934 51.9767C173.391 52.103 174.846 51.7119 176.044 50.8722C176.483 50.5176 176.835 50.0663 177.071 49.5536C177.308 49.0409 177.423 48.4805 177.408 47.916C177.393 47.0977 177.081 46.3128 176.531 45.707Z"
        fill="#151718" />
    <path
        d="M149.082 46.5841V46.6653C148.951 47.37 148.563 48.0009 147.994 48.4358C147.357 48.8627 146.599 49.0734 145.834 49.0368C145.339 49.0914 144.84 49.032 144.372 48.863C143.905 48.6941 143.482 48.4201 143.137 48.0622C142.64 47.4528 142.324 46.7152 142.228 45.9344H151.973V44.5375C152.023 43.6492 151.893 42.7599 151.592 41.9227C151.29 41.0855 150.824 40.3176 150.219 39.6647C149.609 39.069 148.884 38.6045 148.088 38.3C147.292 37.9955 146.442 37.8574 145.59 37.8943C144.401 37.8734 143.226 38.1586 142.179 38.7227C141.127 39.2619 140.261 40.1052 139.694 41.1428C139.12 42.2682 138.836 43.5185 138.865 44.7812C138.876 46.0239 139.158 47.2493 139.694 48.3708C140.164 49.4605 140.958 50.3792 141.968 51.0022C143.132 51.6866 144.468 52.0247 145.817 51.9767C146.632 52.0173 147.448 51.8946 148.215 51.6156C148.982 51.3367 149.685 50.9072 150.284 50.3524C151.279 49.4143 151.979 48.2063 152.298 46.8765V46.5192L149.082 46.5841ZM142.585 42.3123C142.861 41.8578 143.261 41.4915 143.738 41.2565C144.296 40.9723 144.916 40.8327 145.541 40.8504C145.966 40.817 146.393 40.8719 146.796 41.0117C147.198 41.1514 147.567 41.3731 147.88 41.6626C148.284 42.0819 148.55 42.6146 148.644 43.1894H142.211C142.274 42.8796 142.389 42.5828 142.553 42.3123H142.585Z"
        fill="#151718" />
    <path fill-rule="evenodd" clip-rule="evenodd"
        d="M119.862 33.382H116.334V36.9105H119.862V33.382ZM119.568 39.1505C119.665 39.4301 119.704 39.7268 119.682 40.0222V48.7283H123.141V51.6844H113.055V48.7283H116.531V40.9318L113.981 41.1754V38.1867L117.391 37.8781C117.699 37.8267 118.014 37.8468 118.313 37.937C118.612 38.0271 118.885 38.1848 119.113 38.3979C119.315 38.6147 119.47 38.8709 119.568 39.1505Z"
        fill="#151718" />
</svg>