<svg width="14" height="15" viewBox="0 0 14 15" fill="none" xmlns="http://www.w3.org/2000/svg">
    <path
        d="M1.16633 14.5013C1.16633 14.5013 -0.000335693 14.5013 -0.000335693 13.3347C-0.000335693 12.168 1.16633 8.66801 6.99966 8.66801C12.833 8.66801 13.9997 12.168 13.9997 13.3347C13.9997 14.5013 12.833 14.5013 12.833 14.5013H1.16633ZM6.99966 7.50134C7.92792 7.50134 8.81816 7.13259 9.47454 6.47622C10.1309 5.81984 10.4997 4.9296 10.4997 4.00134C10.4997 3.07309 10.1309 2.18285 9.47454 1.52647C8.81816 0.870092 7.92792 0.501343 6.99966 0.501343C6.07141 0.501343 5.18117 0.870092 4.52479 1.52647C3.86841 2.18285 3.49966 3.07309 3.49966 4.00134C3.49966 4.9296 3.86841 5.81984 4.52479 6.47622C5.18117 7.13259 6.07141 7.50134 6.99966 7.50134V7.50134Z"
        fill="#151718" />
</svg>