<svg width="28" height="20" viewBox="0 0 28 20" fill="none" xmlns="http://www.w3.org/2000/svg">
<path d="M23.307 16.668H0.666992V19.3346H27.3337V16.668H23.307ZM26.0003 15.3346C25.6403 9.90797 21.667 5.46797 16.4537 4.38797C16.587 4.06797 16.667 3.70797 16.667 3.33464C16.667 1.86797 15.467 0.667969 14.0003 0.667969C12.5337 0.667969 11.3337 1.86797 11.3337 3.33464C11.3337 3.70797 11.4137 4.06797 11.547 4.38797C6.33366 5.46797 2.36033 9.90797 2.00033 15.3346H26.0003ZM14.0003 6.77464C17.9337 6.77464 21.2937 9.21464 22.667 12.6546H5.33366C6.70699 9.21464 10.067 6.77464 14.0003 6.77464Z" fill="#151718"/>
</svg>
