<svg width="28" height="24" viewBox="0 0 28 24" fill="none" xmlns="http://www.w3.org/2000/svg">
<path d="M22.0003 19.3346H24.0003V23.3346H22.0003V19.3346ZM0.666992 19.3346H20.667V23.3346H0.666992V19.3346ZM19.3737 11.6013H17.3337C15.9737 11.6013 14.867 10.2946 14.867 8.93464C14.867 7.57464 15.9737 6.6013 17.3337 6.6013V4.6013C14.867 4.6013 12.867 6.6013 12.867 9.06797C12.867 11.5346 14.867 13.5346 17.3337 13.5346H19.3737C20.7737 13.5346 22.0003 14.5213 22.0003 16.268V18.0013H24.0003V15.8146C24.0003 13.4013 21.867 11.6013 19.3737 11.6013ZM25.3337 19.3346H27.3337V23.3346H25.3337V19.3346ZM23.1337 8.30797C23.9603 7.49464 24.467 6.37464 24.467 5.13464C24.467 2.66797 22.467 0.667969 20.0003 0.667969V2.66797C21.3603 2.66797 22.467 3.77464 22.467 5.13464C22.467 6.49464 21.3603 7.6013 20.0003 7.6013V9.6013C22.987 9.6013 25.3337 12.0413 25.3337 15.028V18.0013H27.3337V15.0146C27.3337 12.0546 25.627 9.49464 23.1337 8.30797Z" fill="#151718"/>
</svg>
