<svg width="28" height="24" viewBox="0 0 28 24" fill="none" xmlns="http://www.w3.org/2000/svg">
<path d="M11.3337 6.66688L7.00033 11.0002C7.41366 11.1602 7.74699 11.3602 8.02699 11.5202C8.52033 11.8268 8.81366 12.0002 9.56033 12.0002C10.307 12.0002 10.6003 11.8268 11.0937 11.5202C11.707 11.1602 12.5337 10.6668 14.0137 10.6668C15.4937 10.6668 16.3203 11.1602 16.9203 11.5202C17.4137 11.8135 17.7203 12.0002 18.4537 12.0002C19.187 12.0002 19.4937 11.8268 19.987 11.5202C20.147 11.4268 20.3337 11.3202 20.5337 11.2135L11.9737 2.66688C9.90699 0.600212 8.00033 -0.0131216 4.66699 0.000211781V3.33355C7.09366 3.32021 8.52033 3.85355 10.0003 5.33355L11.3337 6.66688ZM27.3337 18.0002H27.307H27.3337ZM5.13366 16.6668C5.86699 16.6668 6.17366 16.8535 6.66699 17.1468C7.26699 17.5068 8.09366 18.0002 9.57366 18.0002C11.0537 18.0002 11.8803 17.5068 12.4803 17.1468C12.9737 16.8402 13.267 16.6668 14.0137 16.6668C14.747 16.6668 15.0537 16.8535 15.547 17.1468C16.147 17.5068 16.9737 18.0002 18.4537 18.0002C19.9337 18.0002 20.7603 17.5068 21.3603 17.1468C21.8537 16.8402 22.147 16.6668 22.8937 16.6668C23.627 16.6668 23.9337 16.8535 24.427 17.1468C25.027 17.5068 25.8403 17.9868 27.307 18.0002V15.3335C26.5737 15.3335 26.267 15.1468 25.7737 14.8535C25.1737 14.4935 24.347 14.0002 22.867 14.0002C21.387 14.0002 20.5603 14.4935 19.9603 14.8535C19.467 15.1602 19.1603 15.3335 18.427 15.3335C17.6937 15.3335 17.387 15.1468 16.8937 14.8535C16.2937 14.4935 15.467 14.0002 13.987 14.0002C12.507 14.0002 11.6803 14.4935 11.0803 14.8535C10.587 15.1602 10.2937 15.3335 9.54699 15.3335C8.81366 15.3335 8.50699 15.1468 8.01366 14.8535C7.41366 14.4935 6.58699 14.0002 5.10699 14.0002C3.62699 14.0002 2.80033 14.4935 2.20033 14.8535C1.70699 15.1602 1.41366 15.3335 0.666992 15.3335V18.0002C2.14699 18.0002 2.97366 17.5068 3.60033 17.1468C4.09366 16.8402 4.40033 16.6668 5.13366 16.6668ZM22.8937 20.0002C21.4137 20.0002 20.587 20.4935 19.987 20.8535C19.4937 21.1602 19.187 21.3335 18.4537 21.3335C17.7203 21.3335 17.4137 21.1468 16.9203 20.8535C16.3203 20.4935 15.4937 20.0002 14.0137 20.0002C12.5337 20.0002 11.707 20.4935 11.0937 20.8535C10.6003 21.1602 10.307 21.3335 9.56033 21.3335C8.81366 21.3335 8.52033 21.1602 8.02699 20.8535C7.42699 20.4935 6.60033 20.0002 5.12033 20.0002C3.64033 20.0002 2.81366 20.4935 2.20033 20.8535C1.70699 21.1602 1.41366 21.3335 0.666992 21.3335V24.0002C2.14699 24.0002 2.97366 23.5068 3.58699 23.1468C4.08033 22.8402 4.38699 22.6668 5.12033 22.6668C5.85366 22.6668 6.16033 22.8402 6.65366 23.1468C7.25366 23.5068 8.08033 24.0002 9.56033 24.0002C11.0403 24.0002 11.867 23.5068 12.4803 23.1468C12.9737 22.8402 13.267 22.6668 14.0137 22.6668C14.747 22.6668 15.0537 22.8535 15.547 23.1468C16.147 23.5068 16.9737 24.0002 18.4537 24.0002C19.9337 24.0002 20.747 23.5068 21.3603 23.1468C21.8537 22.8402 22.147 22.6668 22.8937 22.6668C23.627 22.6668 23.9337 22.8535 24.427 23.1468C25.027 23.5068 25.8537 24.0002 27.3337 24.0002V21.3335C26.587 21.3335 26.2937 21.1602 25.8003 20.8535C25.2003 20.4935 24.3737 20.0002 22.8937 20.0002Z" fill="#151718"/>
<path d="M20.0003 6.66682C21.8413 6.66682 23.3337 5.17443 23.3337 3.33349C23.3337 1.49254 21.8413 0.000152588 20.0003 0.000152588C18.1594 0.000152588 16.667 1.49254 16.667 3.33349C16.667 5.17443 18.1594 6.66682 20.0003 6.66682Z" fill="#151718"/>
</svg>
