<svg width="28" height="30" viewBox="0 0 28 30" fill="none" xmlns="http://www.w3.org/2000/svg">
<path d="M24.0264 2.31962C20.9064 -0.800382 15.1997 -0.173717 11.2931 3.73295C9.15979 5.86629 7.93313 8.89295 7.90646 11.013C7.87979 13.1196 8.25313 16.1996 6.10646 18.3463L0.453125 23.9996L2.34646 25.8929L7.99979 20.2396C10.1465 18.0929 13.2264 18.4663 15.3331 18.4396C17.4397 18.4129 20.4797 17.1863 22.6131 15.0529C26.5064 11.1463 27.1464 5.43962 24.0264 2.31962V2.31962ZM11.7597 14.5729C9.71979 12.5329 10.3598 8.42629 13.1731 5.61295C15.9864 2.79962 20.0797 2.15962 22.1331 4.19962C24.1731 6.23962 23.5331 10.3463 20.7197 13.1596C17.9064 15.9729 13.8131 16.6129 11.7597 14.5729V14.5729Z" fill="#151718"/>
<path d="M22.0003 21.6667C22.707 21.6667 23.387 21.9467 23.8803 22.4533C24.9203 23.4933 24.9203 25.1867 23.8803 26.2267C23.387 26.72 22.707 27 22.0003 27C21.2937 27 20.6137 26.72 20.1203 26.2133C19.0803 25.1733 19.0803 23.48 20.1203 22.44C20.6137 21.9467 21.2937 21.6667 22.0003 21.6667ZM22.0003 19C20.6403 19 19.267 19.52 18.227 20.56C16.147 22.64 16.147 26.0133 18.227 28.1067C19.267 29.1467 20.6403 29.6667 22.0003 29.6667C23.3603 29.6667 24.7337 29.1467 25.7737 28.1067C27.8537 26.0267 27.8537 22.6533 25.7737 20.56C24.7337 19.52 23.3603 19 22.0003 19V19Z" fill="#151718"/>
</svg>
