<svg width="28" height="22" viewBox="0 0 28 22" fill="none" xmlns="http://www.w3.org/2000/svg">
<path d="M26.7994 19.2656L15.3327 10.6656V9.45228C17.5327 8.79895 19.0661 6.55891 18.5727 4.05224C18.2261 2.30557 16.8394 0.852242 15.0927 0.452242C12.0527 -0.241092 9.3327 2.06557 9.3327 4.99891H11.9994C11.9994 3.89224 12.8927 2.99891 13.9994 2.99891C15.1061 2.99891 15.9994 3.89224 15.9994 4.99891C15.9994 6.11891 15.0794 7.02558 13.9594 6.99891C13.2394 6.98558 12.6661 7.59891 12.6661 8.31891V10.6656L1.19937 19.2656C0.172703 20.0389 0.719369 21.6656 1.99937 21.6656H13.9994H25.9994C27.2794 21.6656 27.8261 20.0389 26.7994 19.2656ZM5.99937 18.9989L13.9994 12.9989L21.9994 18.9989H5.99937Z" fill="#151718"/>
</svg>
