<svg width="28" height="28" viewBox="0 0 28 28" fill="none" xmlns="http://www.w3.org/2000/svg">
<path d="M18.6537 10.8413C18.4137 7.1213 16.907 3.49464 14.0803 0.667969C11.227 3.5213 9.65366 7.14797 9.34699 10.8413C11.0537 11.748 12.627 12.9213 14.0003 14.348C15.3737 12.9346 16.947 11.7613 18.6537 10.8413ZM14.067 4.9213C14.907 6.29464 15.4937 7.82797 15.8003 9.42797C15.1737 9.82797 14.587 10.268 14.0137 10.7346C13.4537 10.2813 12.8537 9.8413 12.2403 9.4413C12.5737 7.8413 13.187 6.30797 14.067 4.9213ZM14.0003 18.6013C12.907 16.9346 11.5203 15.4813 9.92033 14.3346C9.74699 14.2146 9.56033 14.1213 9.38699 13.988C9.56033 14.108 9.74699 14.2146 9.90699 14.3213C7.30699 12.4413 4.12033 11.3346 0.666992 11.3346C0.666992 18.428 5.14699 24.428 11.3737 26.6546C12.2137 26.9613 13.0937 27.188 14.0003 27.3346C14.907 27.1746 15.7737 26.948 16.627 26.6546C22.8537 24.428 27.3337 18.428 27.3337 11.3346C21.7603 11.3346 16.867 14.228 14.0003 18.6013ZM15.7603 24.1346C15.1737 24.3346 14.587 24.4946 13.987 24.628C13.4003 24.508 12.827 24.348 12.2803 24.148C7.89366 22.5746 4.68033 18.828 3.68033 14.348C5.14699 14.6946 6.54699 15.2946 7.84033 16.1213L7.81366 16.1346C7.98699 16.2546 8.16033 16.3746 8.33366 16.468L8.42699 16.5213C9.74699 17.4813 10.8803 18.668 11.7737 20.0546L14.0003 23.468L16.227 20.068C17.147 18.668 18.2937 17.468 19.6003 16.5213L19.6937 16.4546C19.8137 16.388 19.9337 16.308 20.0537 16.228L20.0403 16.2013C21.347 15.3346 22.8003 14.6946 24.3203 14.3346C23.3203 18.828 20.1203 22.5746 15.7603 24.1346ZM9.98699 14.3746C9.96033 14.3613 9.93366 14.3346 9.92033 14.3213C9.92033 14.3213 9.93366 14.3213 9.93366 14.3346C9.94699 14.348 9.96033 14.3613 9.98699 14.3746Z" fill="#151718"/>
</svg>
