<svg width="25" height="24" viewBox="0 0 25 24" fill="none" xmlns="http://www.w3.org/2000/svg">
<path d="M0.333008 21.3333H21.6663V24H0.333008V21.3333ZM21.6663 0H0.333008V13.3333C0.333008 16.28 2.71967 18.6667 5.66634 18.6667H13.6663C16.613 18.6667 18.9997 16.28 18.9997 13.3333V9.33333H21.6663C23.1463 9.33333 24.333 8.13333 24.333 6.66667V2.66667C24.333 1.18667 23.1463 0 21.6663 0ZM16.333 13.3333C16.333 14.8 15.133 16 13.6663 16H5.66634C4.19967 16 2.99967 14.8 2.99967 13.3333V2.66667H16.333V13.3333ZM21.6663 6.66667H18.9997V2.66667H21.6663V6.66667Z" fill="#151718"/>
</svg>
